HIERARCHY
ROOT Hips
{
	OFFSET 0.00000 0.00000 0.00000
	CHANNELS 6 Xposition Yposition Zposition Zrotation Yrotation Xrotation 
	JOINT LHipJoint
	{
		OFFSET 0 0 0
		CHANNELS 3 Zrotation Yrotation Xrotation
		JOINT LeftHip
		{
			OFFSET 1.82298 -1.58346 0.87084
			CHANNELS 3 Zrotation Yrotation Xrotation
			JOINT LeftKnee
			{
				OFFSET 2.43790 -6.69809 0.00000
				CHANNELS 3 Zrotation Yrotation Xrotation
				JOINT LeftAnkle
				{
					OFFSET 2.59288 -7.12389 0.00000
					CHANNELS 3 Zrotation Yrotation Xrotation
					JOINT LeftToe
					{
						OFFSET 0.14552 -0.39981 2.13160
						CHANNELS 3 Zrotation Yrotation Xrotation
						End Site
						{
							OFFSET 0.00000 -0.00000 1.09427
						}
					}
				}
			}
		}
	}
	JOINT RHipJoint
	{
		OFFSET 0 0 0
		CHANNELS 3 Zrotation Yrotation Xrotation
		JOINT RightHip
		{
			OFFSET -1.77229 -1.58346 0.87084
			CHANNELS 3 Zrotation Yrotation Xrotation
			JOINT RightKnee
			{
				OFFSET -2.50703 -6.88801 0.00000
				CHANNELS 3 Zrotation Yrotation Xrotation
				JOINT RightAnkle
				{
					OFFSET -2.61620 -7.18796 0.00000
					CHANNELS 3 Zrotation Yrotation Xrotation
					JOINT RightToe
					{
						OFFSET -0.15190 -0.41735 2.15974
						CHANNELS 3 Zrotation Yrotation Xrotation
						End Site
						{
							OFFSET -0.00000 -0.00000 1.10919
						}
					}
				}
			}
		}
	}
	JOINT lowerback
	{
		OFFSET 0 0 0
		CHANNELS 3 Zrotation Yrotation Xrotation
		JOINT Chest
		{
			OFFSET -0.03602 2.12423 -0.30249
			CHANNELS 3 Zrotation Yrotation Xrotation
			JOINT Chest2
			{
				OFFSET 0.02717 2.10043 0.12912
				CHANNELS 3 Zrotation Yrotation Xrotation
				JOINT lowerneck
				{
					OFFSET 0 0 0
					CHANNELS 3 Zrotation Yrotation Xrotation
					JOINT Neck
					{
						OFFSET -0.06371 1.88656 0.11602
						CHANNELS 3 Zrotation Yrotation Xrotation
						JOINT Head
						{
							OFFSET 0.08208 1.87759 -0.11505
							CHANNELS 3 Zrotation Yrotation Xrotation
							End Site
							{
								OFFSET 0.03382 1.93090 -0.05483
							}
						}
					}
				}
				JOINT LeftCollar
				{
					OFFSET 0 0 0
					CHANNELS 3 Zrotation Yrotation Xrotation
					JOINT LeftShoulder
					{
						OFFSET 3.30903 1.40357 0.20156
CHANNELS 3 Zrotation Xrotation Yrotation
						JOINT LeftElbow
						{
OFFSET 0 -5.433010 0.000000
CHANNELS 3 Zrotation Xrotation Yrotation
							JOINT LeftWrist
							{
OFFSET 0 -3.159360 0.000000
CHANNELS 3 Zrotation Xrotation Yrotation
								JOINT lhand
								{
									OFFSET 0 0 0
CHANNELS 3 Zrotation Xrotation Yrotation
									JOINT LFingers
									{
OFFSET 0 -0.712830 0.000000
CHANNELS 3 Zrotation Xrotation Yrotation
										End Site
										{
OFFSET 0 -0.574700 0.000000
										}
									}
								}
								JOINT LThumb
								{
OFFSET 0 0.000000 0.000000
CHANNELS 3 Zrotation Xrotation Yrotation
									End Site
									{
OFFSET 0 -0.583470 0.583470
									}
								}
							}
						}
					}
				}
				JOINT RightCollar
				{
					OFFSET 0 0 0
					CHANNELS 3 Zrotation Yrotation Xrotation
					JOINT RightShoulder
					{
						OFFSET -3.12947 1.60037 -0.00464
CHANNELS 3 Zrotation Xrotation Yrotation
						JOINT RightElbow
						{
OFFSET 0 -5.341940 0.000000
CHANNELS 3 Zrotation Xrotation Yrotation
							JOINT RightWrist
							{
OFFSET 0 -3.193510 0.000000
CHANNELS 3 Zrotation Xrotation Yrotation
								JOINT rhand
								{
									OFFSET 0 0 0
CHANNELS 3 Zrotation Xrotation Yrotation
									JOINT RFingers
									{
OFFSET 0 -0.743860 0.000000
CHANNELS 3 Zrotation Xrotation Yrotation
										End Site
										{
OFFSET 0 -0.599720 0.000000
										}
									}
								}
								JOINT RThumb
								{
OFFSET 0 0.000000 0.000000
CHANNELS 3 Zrotation Xrotation Yrotation
									End Site
									{
OFFSET 0 -0.608880 0.608880
									}
								}
							}
						}
					}
				}
			}
		}
	}
}
MOTION
Frames: 12
Frame Time: 0.008333333333333333
-0.821600 11.590500 11.336200 -1.765100 1.631900 8.640100 0.000000 0.000000 0.000000 -3.858800 -8.217400 -72.567300 25.860800 19.155700 107.370800 2.903200 6.124900 -34.761800 0.487300 -4.476000 -12.419800 0.000000 0.000000 0.000000 7.512300 13.622900 -71.351500 -26.171200 -19.061300 108.319100 -3.290500 -6.174200 -36.807900 -0.538200 4.700400 -13.056100 -2.662000 1.687200 18.420700 0.811000 1.741500 -3.752000 1.898700 1.078100 -14.800800 -5.862500 -3.362500 -8.502500 5.597000 -4.289000 6.890300 2.408800 -2.010700 3.687900 -0.000000 -0.000000 0.000000 -3.901100 -70.711900 -38.598500 85.654700 -59.928500 56.237700 10.439200 36.258000 -2.002500 0.000000 0.000000 0.000000 -7.125000 0.000000 0.000000 -12.907200 31.839300 -4.250700 -0.000000 -0.000000 0.000000 -52.205200 -62.651200 -3.766300 -99.402100 -59.663300 -68.133200 1.384400 20.553400 13.991700 0.000000 0.000000 0.000000 7.125000 0.000000 -0.000000 25.651900 42.403700 1.771800
-0.819760 11.591759 11.336103 -1.773427 1.618344 8.649880 0.000000 0.000000 0.000000 -3.861075 -8.206120 -72.573207 25.857459 19.156717 107.360585 2.900440 6.146686 -34.757540 0.497467 -4.521654 -12.549162 0.000000 0.000000 0.000000 7.510460 13.637812 -71.354018 -26.165874 -19.062946 108.302784 -3.287450 -6.188966 -36.799234 -0.539604 4.706597 -13.073626 -2.651639 1.682601 18.422249 0.815357 1.738402 -3.745900 1.898700 1.075921 -14.793974 -5.872909 -3.358821 -8.522882 5.607603 -4.282658 6.889041 2.413883 -2.007021 3.690998 0.000000 0.000000 0.000000 -3.875876 -70.747630 -38.562383 85.632623 -59.927774 56.218625 10.397661 36.250786 -1.999208 0.000000 0.000000 0.000000 -7.125000 0.000000 0.000000 -12.939395 31.834797 -4.263239 0.000000 0.000000 0.000000 -52.232844 -62.676521 -3.801739 -99.384816 -59.664559 -68.118288 1.391081 20.546525 13.978773 0.000000 0.000000 0.000000 7.125000 0.000000 0.000000 25.652433 42.391354 1.780321
-0.817921 11.593018 11.336006 -1.781754 1.604788 8.659659 0.000000 0.000000 0.000000 -3.863351 -8.194839 -72.579113 25.854119 19.157733 107.350369 2.897681 6.168473 -34.753279 0.507634 -4.567309 -12.678525 0.000000 0.000000 0.000000 7.508621 13.652723 -71.356535 -26.160549 -19.064592 108.286469 -3.284400 -6.203733 -36.790568 -0.541008 4.712794 -13.091152 -2.641279 1.678001 18.423798 0.819715 1.735303 -3.739800 1.898700 1.073743 -14.787147 -5.883318 -3.355141 -8.543265 5.618205 -4.276316 6.887782 2.418967 -2.003341 3.694097 0.000000 0.000000 0.000000 -3.850653 -70.783359 -38.526266 85.610546 -59.927048 56.199550 10.356122 36.243573 -1.995916 0.000000 0.000000 0.000000 -7.125000 0.000000 0.000000 -12.971591 31.830295 -4.275778 0.000000 0.000000 0.000000 -52.260489 -62.701841 -3.837178 -99.367532 -59.665818 -68.103377 1.397762 20.539650 13.965847 0.000000 0.000000 0.000000 7.125000 0.000000 0.000000 25.652965 42.379009 1.788842
-0.816171 11.594819 11.336226 -1.760720 1.603810 8.668806 0.000000 0.000000 0.000000 -3.896934 -8.207899 -72.549550 25.847159 19.159745 107.329205 2.909172 6.103077 -34.783222 0.521104 -4.626219 -12.845573 0.000000 0.000000 0.000000 7.475926 13.640263 -71.358872 -26.156490 -19.065876 108.273999 -3.282164 -6.209858 -36.782083 -0.541824 4.716186 -13.100851 -2.655258 1.673040 18.424850 0.814571 1.724513 -3.737364 1.904220 1.069664 -14.784574 -5.879792 -3.354990 -8.545505 5.613878 -4.275900 6.884940 2.417038 -2.003236 3.693395 0.000000 0.000000 0.000000 -3.829817 -70.819541 -38.510554 85.584669 -59.926186 56.177172 10.355119 36.234730 -1.982670 0.000000 0.000000 0.000000 -7.125000 0.000000 0.000000 -12.970488 31.817151 -4.279631 0.000000 0.000000 0.000000 -52.284921 -62.713951 -3.870084 -99.355678 -59.666669 -68.093171 1.405303 20.526804 13.976491 0.000000 0.000000 0.000000 7.125000 0.000000 0.000000 25.663406 42.387837 1.783609
-0.814428 11.596659 11.336468 -1.737626 1.603713 8.677907 0.000000 0.000000 0.000000 -3.932712 -8.222665 -72.517500 25.839945 19.161827 107.307274 2.921663 6.031570 -34.815562 0.534805 -4.686059 -13.015265 0.000000 0.000000 0.000000 7.441068 13.625884 -71.361195 -26.152520 -19.067135 108.261799 -3.279985 -6.215377 -36.773610 -0.542598 4.719381 -13.110001 -2.670945 1.668053 18.425867 0.808761 1.713184 -3.735185 1.910126 1.065452 -14.782298 -5.875290 -3.355087 -8.546473 5.608504 -4.275900 6.881987 2.414617 -2.003381 3.692427 0.000000 0.000000 0.000000 -3.809290 -70.855755 -38.496271 85.558526 -59.925314 56.154563 10.356959 36.225774 -1.968727 0.000000 0.000000 0.000000 -7.125000 0.000000 0.000000 -12.967050 31.803402 -4.282875 0.000000 0.000000 0.000000 -52.309128 -62.725135 -3.902812 -99.344204 -59.667492 -68.083294 1.412904 20.513538 13.988789 0.000000 0.000000 0.000000 7.125000 0.000000 0.000000 25.674541 42.398149 1.777412
-0.811508 11.599088 11.337972 -1.737419 1.559568 8.667825 0.000000 0.000000 0.000000 -3.963273 -8.181983 -72.485576 25.834625 19.163404 107.291106 2.922753 6.040585 -34.825774 0.535717 -4.690030 -13.026478 0.000000 0.000000 0.000000 7.428338 13.656688 -71.325151 -26.144469 -19.069656 108.237188 -3.279826 -6.210883 -36.770649 -0.543037 4.721315 -13.115491 -2.663660 1.676782 18.421625 0.804340 1.726172 -3.721816 1.897059 1.070117 -14.764120 -5.870703 -3.353375 -8.554762 5.609272 -4.273796 6.881474 2.414132 -2.002054 3.693436 0.000000 0.000000 0.000000 -3.799911 -70.881451 -38.489983 85.554343 -59.925200 56.150927 10.360734 36.234360 -1.960043 0.000000 0.000000 0.000000 -7.125000 0.000000 0.000000 -12.962772 31.794953 -4.284099 0.000000 0.000000 0.000000 -52.328581 -62.741367 -3.936549 -99.335127 -59.668147 -68.075437 1.425175 20.521308 13.990400 0.000000 0.000000 0.000000 7.125000 0.000000 0.000000 25.685424 42.398322 1.778157
-0.808409 11.601605 11.339667 -1.740662 1.508782 8.654850 0.000000 0.000000 0.000000 -3.993048 -8.132940 -72.453671 25.829590 19.164905 107.275807 2.922124 6.061742 -34.832649 0.534700 -4.685575 -13.013793 0.000000 0.000000 0.000000 7.418946 13.694306 -71.283322 -26.135803 -19.072367 108.210705 -3.279971 -6.204880 -36.768519 -0.543424 4.723057 -13.120429 -2.652913 1.687578 18.416590 0.800128 1.742827 -3.706759 1.881131 1.076120 -14.743544 -5.866104 -3.351390 -8.564154 5.610967 -4.271376 6.881329 2.413938 -2.000505 3.694743 0.000000 0.000000 0.000000 -3.792213 -70.905561 -38.484899 85.553471 -59.925200 56.150152 10.364801 36.245592 -1.952151 0.000000 0.000000 0.000000 -7.125000 0.000000 0.000000 -12.958366 31.787304 -4.285019 0.000000 0.000000 0.000000 -52.347317 -62.758360 -3.970439 -99.326413 -59.668776 -68.067884 1.438150 20.532249 13.990400 0.000000 0.000000 0.000000 7.125000 0.000000 0.000000 25.696268 42.396966 1.779948
-0.806400 11.602956 11.339844 -1.737799 1.493665 8.654634 0.000000 0.000000 0.000000 -4.012553 -8.121277 -72.445105 25.825799 19.166017 107.264204 2.921572 6.066367 -34.831938 0.540179 -4.709050 -13.080500 0.000000 0.000000 0.000000 7.405197 13.703100 -71.272766 -26.131144 -19.073795 108.196476 -3.279028 -6.204206 -36.763510 -0.543733 4.724372 -13.124123 -2.650217 1.687522 18.422602 0.798833 1.743027 -3.700416 1.878039 1.075744 -14.739500 -5.864266 -3.350105 -8.567828 5.611883 -4.269694 6.878811 2.414017 -1.999539 3.694455 0.000000 0.000000 0.000000 -3.782454 -70.930177 -38.477326 85.546104 -59.924928 56.143776 10.364861 36.251418 -1.948499 0.000000 0.000000 0.000000 -7.125000 0.000000 0.000000 -12.957772 31.783661 -4.285978 0.000000 0.000000 0.000000 -52.369049 -62.772942 -4.001878 -99.313692 -59.669678 -68.056909 1.438094 20.539223 13.988883 0.000000 0.000000 0.000000 7.125000 0.000000 0.000000 25.695560 42.395611 1.780845
-0.804657 11.604021 11.339651 -1.733442 1.487275 8.657539 0.000000 0.000000 0.000000 -4.029547 -8.118760 -72.442249 25.822314 19.167034 107.253504 2.921040 6.066948 -34.829372 0.547248 -4.739357 -13.166628 0.000000 0.000000 0.000000 7.390382 13.704843 -71.269861 -26.127464 -19.074908 108.185244 -3.277817 -6.204835 -36.757797 -0.544024 4.725583 -13.127512 -2.649490 1.684811 18.431316 0.798252 1.739202 -3.696204 1.878087 1.073808 -14.739500 -5.863105 -3.348992 -8.570104 5.612610 -4.268193 6.875712 2.414162 -1.998716 3.693778 0.000000 0.000000 0.000000 -3.772190 -70.954917 -38.469144 85.537147 -59.924589 56.136030 10.363941 36.255920 -1.945885 0.000000 0.000000 0.000000 -7.125000 0.000000 0.000000 -12.958111 31.780998 -4.286946 0.000000 0.000000 0.000000 -52.391513 -62.786933 -4.032718 -99.299991 -59.670646 -68.045096 1.434850 20.545227 13.986995 0.000000 0.000000 0.000000 7.125000 0.000000 0.000000 25.692026 42.394255 1.781522
-0.803092 11.604693 11.339171 -1.730299 1.485850 8.661158 0.000000 0.000000 0.000000 -4.042789 -8.118564 -72.445716 25.819899 19.167729 107.246198 2.919864 6.068458 -34.823877 0.553887 -4.767485 -13.246576 0.000000 0.000000 0.000000 7.376961 13.704192 -71.271351 -26.124678 -19.075772 108.176655 -3.276607 -6.204786 -36.751548 -0.544422 4.727329 -13.132401 -2.648157 1.681170 18.442567 0.798850 1.734413 -3.693635 1.879315 1.071514 -14.742930 -5.861478 -3.348450 -8.568592 5.612014 -4.267550 6.872185 2.413807 -1.998393 3.692385 0.000000 0.000000 0.000000 -3.766463 -70.976262 -38.466285 85.530084 -59.924357 56.129927 10.368702 36.261173 -1.945200 0.000000 0.000000 0.000000 -7.125000 0.000000 0.000000 -12.954270 31.780443 -4.285807 0.000000 0.000000 0.000000 -52.413262 -62.798424 -4.060664 -99.286682 -59.671579 -68.033604 1.422889 20.553945 13.984678 0.000000 0.000000 0.000000 7.125000 0.000000 0.000000 25.681168 42.393400 1.781236
-0.801592 11.605226 11.338590 -1.727588 1.486189 8.665031 0.000000 0.000000 0.000000 -4.054698 -8.119194 -72.451429 25.817866 19.168310 107.240098 2.918460 6.070297 -34.817341 0.560375 -4.794839 -13.324329 0.000000 0.000000 0.000000 7.364035 13.702692 -71.274401 -26.122209 -19.076546 108.169006 -3.275396 -6.204495 -36.745109 -0.544857 4.729266 -13.137824 -2.646608 1.677201 18.454719 0.799867 1.729281 -3.691650 1.880961 1.069093 -14.747577 -5.859687 -3.348111 -8.565736 5.610949 -4.267211 6.868505 2.413274 -1.998248 3.690739 0.000000 0.000000 0.000000 -3.762348 -70.996402 -38.465317 85.523693 -59.924163 56.124408 10.375480 36.266692 -1.945200 0.000000 0.000000 0.000000 -7.125000 0.000000 0.000000 -12.948945 31.780637 -4.283919 0.000000 0.000000 0.000000 -52.434758 -62.809027 -4.087582 -99.273514 -59.672499 -68.022227 1.407832 20.563628 13.982209 0.000000 0.000000 0.000000 7.125000 0.000000 0.000000 25.667709 42.392722 1.780606
-0.800188 11.605595 11.337977 -1.727253 1.487993 8.668253 0.000000 0.000000 0.000000 -4.063320 -8.118423 -72.459681 25.816744 19.168630 107.236733 2.916763 6.073342 -34.809698 0.566081 -4.818775 -13.392381 0.000000 0.000000 0.000000 7.354396 13.701679 -71.277288 -26.120488 -19.077093 108.163765 -3.274479 -6.204335 -36.740396 -0.545195 4.730649 -13.141781 -2.644472 1.672612 18.465894 0.802739 1.723759 -3.689633 1.884593 1.066575 -14.751639 -5.856268 -3.349530 -8.562033 5.605652 -4.269183 6.866095 2.411017 -1.999437 3.689321 0.000000 0.000000 0.000000 -3.758591 -71.013678 -38.462917 85.518117 -59.923970 56.119572 10.384146 36.274946 -1.947544 0.000000 0.000000 0.000000 -7.125000 0.000000 0.000000 -12.942447 31.783174 -4.280858 0.000000 0.000000 0.000000 -52.452510 -62.818946 -4.107827 -99.261192 -59.673386 -68.011598 1.385386 20.577380 13.979317 0.000000 0.000000 0.000000 7.125000 0.000000 0.000000 25.647869 42.392435 1.779228
